<?xml version="1.0" encoding="UTF-8"?>
<svg xmlns="http://www.w3.org/2000/svg" width="512" height="512" version="1.1">
  <path fill="#ffffff" d="m 242.5,61 h 27 l 1.5,1.5 v 237 l 2.5,0.5 105,-105 20.5,20.5 v 2 L 256.5,360 113,217.5 v -2 l 20.5,-20.5 105,105 H 241 V 62.5 Z"></path>
  <path fill="#ffffff" d="M 46.5 287.18164 L 45 288.68164 L 45 378.68164 C 46.266664 385.41496 48.600006 391.08166 52 395.68164 C 58.399988 404.94829 68.23336 410.78164 81.5 413.18164 L 256 413.18164 L 430.5 413.18164 C 443.76664 410.78164 453.60002 404.94829 460 395.68164 C 463.4 391.08166 465.73333 385.41496 467 378.68164 L 467 288.68164 L 465.5 287.18164 L 438.5 287.18164 L 437 288.68164 L 437 372.68164 C 436.13333 376.5483 434.3 379.38164 431.5 381.18164 L 429.5 382.18164 L 256 382.18164 L 82.5 382.18164 L 80.5 381.18164 C 77.700006 379.38164 75.866665 376.5483 75 372.68164 L 75 288.68164 L 73.5 287.18164 L 46.5 287.18164 z "></path>
</svg>
