<svg width="512" height="512" version="1.1" xmlns="http://www.w3.org/2000/svg" ><path fill="#FFFFFF" stroke="#FFFFFF" stroke-width="0" opacity="0.32" d="M 247.5 61 L 274.5 61 L 276 62.5 L 276 299.5 L 278.5 300 L 383.5 195 L 404 215.5 L 404 217.5 L 261.5 360 L 118 217.5 L 118 215.5 L 138.5 195 L 243.5 300 L 246 300 L 246 62.5 L 247.5 61 Z " /><path fill="#FFFFFF" stroke="#FFFFFF" stroke-width="0" opacity="0.32" d="M 51.5 333 L 78.5 333 L 80 334.5 L 80 418.5 Q 81.3 424.3 85.5 427 L 87.5 428 L 434.5 428 L 440 423.5 L 442 418.5 L 442 334.5 L 443.5 333 L 470.5 333 L 472 334.5 L 472 424.5 Q 468.2 442.2 455.5 451 L 444.5 457 L 435.5 459 L 86.5 459 Q 66.6 455.4 57 441.5 Q 51.9 434.6 50 424.5 L 50 334.5 L 51.5 333 Z " /></svg>