<?xml version="1.0" encoding="UTF-8"?>
<svg width="512" height="512" version="1.1" xmlns="http://www.w3.org/2000/svg">
  <path fill="#ffffff" d="m 242.5,61 h 27 l 1.5,1.5 v 237 l 2.5,0.5 105,-105 20.5,20.5 v 2 L 256.5,360 113,217.5 v -2 l 20.5,-20.5 105,105 H 241 V 62.5 Z"/>
  <path fill="#ffffff" d="m 46.5,333 -1.5,1.5 v 90 c 1.266664,6.73332 3.600006,12.40002 7,17 6.399988,9.26665 16.23336,15.1 29.5,17.5 H 256 430.5 c 13.26664,-2.4 23.10002,-8.23335 29.5,-17.5 3.4,-4.59998 5.73333,-10.26668 7,-17 v -90 l -1.5,-1.5 h -27 l -1.5,1.5 v 84 c -0.86667,3.86666 -2.7,6.7 -5.5,8.5 l -2,1 H 256 82.5 l -2,-1 c -2.799994,-1.8 -4.633335,-4.63334 -5.5,-8.5 v -84 L 73.5,333 Z"/>
</svg>
