<?xml version="1.0" standalone="yes"?>
<svg xmlns="http://www.w3.org/2000/svg" width="200" height="225">
<mask id="mask">
<rect fill="white" width="100%" height="100%" fill-opacity="1" />
<path style="fill:#000000; stroke:none;" d="M157 0C156.867 7.72035 149.164 14.4883 147 22C174.354 36.4108 198.735 68.0155 199 100C202.507 91.6425 200 78.0596 200 69L200 0L157 0M46 34C49.2182 37.0795 52.9186 39.239 57 41C63.2749 32.5474 71.5015 24.6528 81 20C77.4036 18.9361 73.4824 20.6273 70 21.8642C61.3218 24.9467 53.9671 29.5645 46 34M119 19C123.05 22.5907 128.049 25.8344 133 28L135 24C129.916 21.6333 124.556 19.8174 119 19M96 22C88.4098 28.7852 83.4791 38.9844 82 49C87.0524 49.6385 91.8992 50 97 50C97 41.7122 99.2096 29.6488 96 22M103 22L103 50C108.298 50 113.049 50.089 118 48C115.914 38.9828 111.408 26.7788 103 22M84 24C75.6943 29.2557 67.3278 34.9046 63 44C66.2868 45.0691 71.256 47.7466 74.7222 46.3565C76.9064 45.4805 77.6076 43.0068 78.3287 40.9954C80.077 36.119 84.8415 29.0521 84 24M115 24C116.782 29.7398 119.548 35.4935 122 41L129 34C125.16 29.7958 120.215 26.2904 115 24M143 28C141.667 31.0499 139.843 33.7818 139 37C140.753 38.3303 141.67 39.2475 143 41C146.867 39.3315 150.325 37.038 154 35C150.793 31.9283 147.152 29.5737 143 28M41 38C31.8392 47.1366 23.1798 56.5093 17 68L41 77C42.6 72.7588 43.3424 68.233 45.0903 64.0394C47.6233 57.9617 51.1619 52.3829 53 46C48.8958 43.3843 44.8011 41.0655 41 38M158 38C154.974 41.628 150.945 43.4859 147 46C148.657 51.7554 151.895 56.6459 154.244 62.0895C156.319 66.8987 157.318 72.0716 159 77L183 68C176.941 56.733 168.538 45.4161 158 38M135 42L134 45C135.388 44.3087 135.861 44.0155 137 43L135 42M48 79C55.316 80.6732 62.4861 82.407 70 83C70.0011 72.6702 73.8883 63.0336 74 53C69.9302 52.399 63.2776 48.3481 59.3904 49.7076C56.68 50.6555 55.445 54.6279 54.4275 57C51.4392 63.9669 48.6204 71.4037 48 79M130 83C137.511 82.4072 144.653 80.5164 152 79C151.434 72.0743 148.992 65.4079 146.396 59C145.304 56.3057 144.228 52.6472 142.034 50.6188C137.914 46.8106 128.349 52.9203 126.948 57.3395C126.109 59.9842 128.084 63.3789 128.561 66.0039C129.589 71.6619 129.999 77.2613 130 83M80 55C78.7686 64.6931 76.4205 74.2053 76 84C79.8488 84.4864 84.9412 86.0465 88.6744 84.3966C98.9757 79.844 97 64.8523 97 56C91.2275 56 85.7215 55.7231 80 55M103 56L103 66C106.21 63.1485 108.457 60.0099 110 56L103 56M121 67C118.464 73.0908 113.684 78.736 112 85C116.08 84.9887 119.963 84.5102 124 84C123.889 78.6063 123.804 71.6807 121 67M160 83C161.633 91.6674 161.899 100.286 163 109L194 109C191.692 104.85 192.186 100.566 191.385 96C190.006 88.1408 188.242 80.3149 185 73L160 83M14 74C12.2922 81.3818 9.93099 88.5002 8.61497 96C7.87843 100.197 8.63412 104.523 6 108C14.3668 111.511 27.9238 109 37 109C38.0511 103.338 37.71 97.6664 38.5903 92C38.9702 89.5545 40.2884 85.8117 38.8827 83.5131C37.5641 81.3569 34.1821 80.9171 32 80.1358C25.9151 77.9571 20.5392 74.5745 14 74M45 85C44.3589 93.1128 43 100.804 43 109L68 109L69 89C60.7927 88.6476 53.1205 85.3711 45 85M131 92C138.916 90.9996 147.029 90.3422 155 90L155 85C148.953 85.1016 142.995 87.3182 137 88.2222C133.86 88.6957 131.689 88.7862 131 92M75 90L75 103C78.568 99.4909 81.3759 95.2516 84 91L75 90M107 92C111.268 93.7902 121.863 93.5904 125 90C119.101 90.7455 112.663 90.3262 107 92M155 97C151.945 101.038 148.531 104.561 146 109L157 109L157 97L155 97M6 114C8.33611 118.201 7.71981 122.385 8.43904 127C9.65897 134.827 11.2895 142.958 15 150C23.5577 147.659 31.3712 143.307 40 141C39.3206 135.652 38.0707 130.413 38.0039 125C37.9732 122.517 38.6362 118.704 36.9722 116.603C35.1087 114.25 30.6168 115.001 28 115C20.6218 114.997 13.2798 115.352 6 114M163 115C161.423 123.494 161.093 132.393 160 141C168.607 143.302 176.45 147.662 185 150C188.71 142.958 190.341 134.827 191.561 127C192.223 122.755 191.326 118.53 194 115C190.82 114.236 187.312 114.983 184 114.999L163 115M43 115C43 123.162 44.3614 130.908 45 139C50.3646 138.211 55.6413 136.696 61 135.75C63.2208 135.358 66.4427 135.171 67.9722 133.263C69.2999 131.607 68.9765 128.968 69 127C64.7507 127.788 61.2298 128.004 57 127C60.0388 123.092 63.2215 119.678 65 115L43 115M155 139C155.639 130.908 157 123.162 157 115C147.188 115 139.699 113.816 133.765 123.001C132.067 125.629 129.689 130.283 132.029 133.262C133.533 135.177 136.796 135.361 139 135.75C144.359 136.696 149.635 138.211 155 139M0 124L0 225L31 225C34.7556 225 40.2606 225.984 43.6211 223.987C46.693 222.161 48.6778 217.959 50.4213 214.985C51.9894 212.311 55.0659 208.386 54.7593 205.104C54.428 201.559 49.5985 199.964 47 198.417C40.3117 194.436 33.4695 188.791 28.2894 182.985C18.3059 171.797 9.89872 159.314 5.03935 144.985C2.76074 138.266 2.70117 130.378 0 124M75 133L97 132L97 124C89.1415 124.337 75.3289 122.983 75 133M199 124C198.914 134.43 195.475 143.748 191.225 153.09C177.413 183.45 149.851 207.701 116 212.701C105.065 214.316 93.9128 214.482 83 212.536C77.8571 211.619 69.0948 206.901 64.0895 208.392C58.31 210.114 52.2881 219.865 50 225L200 225L200 155C200 145.94 202.507 132.357 199 124M79 164C85.0352 156.716 90.3563 146.752 94 138C90.0606 138.169 80.6804 137.573 77.6042 140.028C75.5416 141.674 76.2889 144.774 76.5772 147C77.3125 152.678 78.279 158.324 79 164M103 167C108.725 167.047 114.379 167.953 120 169C120.865 162.305 122.354 155.716 123.155 149C123.436 146.644 124.737 142.723 122.983 140.662C120.335 137.551 116.18 144.245 114.789 145.831C108.996 152.437 103.103 157.742 103 167M46 145C50.0863 151.662 51.3611 159.872 54.6296 167C55.7685 169.484 57.0471 173.428 60.1296 174.018C64.3272 174.821 70.7484 170.889 75 170C72.4623 159.898 70.007 150.543 70 140C61.8752 141.049 54.0059 143.348 46 145M130 140C129.993 150.543 127.538 159.898 125 170C129.432 170.926 135.381 174.448 139.87 173.589C142.993 172.991 144.195 169.55 145.37 166.999C148.363 160.503 149.34 151.334 154 146C147.44 141.993 137.559 140.976 130 140M17 155C20.6491 163.105 26.6375 171.141 32.8696 177.424C35.0126 179.585 37.643 183.684 41.0039 183.812C44.5901 183.948 49.9215 179.761 53 178C51.1237 170.101 46.3314 163.632 43.8372 156C43.0459 153.579 42.6035 148.669 39.6968 147.812C37.6197 147.201 34.9226 148.508 33 149.181C27.5809 151.077 22.7667 154.378 17 155M147 178C150.078 179.761 155.41 183.948 158.996 183.812C162.357 183.684 164.987 179.585 167.13 177.424C173.362 171.141 179.351 163.105 183 155C177.399 154.001 172.386 150.985 167 149.17C165.064 148.517 162.388 147.198 160.303 147.812C157.396 148.669 156.954 153.579 156.163 156C153.669 163.632 148.876 170.101 147 178M97 202L97 173C91.9306 173.39 84.001 179.066 84.9475 184.975C85.9075 190.968 92.3152 198.62 97 202M103 173L103 202C111.347 195.979 117.111 184.187 118 174L103 173M124 176L115 199C124.369 196.008 132.217 188.395 137 180C132.802 178.142 128.492 176.93 124 176M70 177L63 180L66 185C68.464 182.716 70.5016 180.449 70 177M46 190C51.2991 192.038 55.289 195.966 61 197C61.8743 195.173 63.163 193.164 62.8465 191.035C61.3642 181.065 49.9352 183.869 46 190M118 204C130.275 206.589 143.42 194.068 154 190C153.052 188.524 152.34 187.62 150.851 186.596C141.569 180.209 137.346 190.18 130.996 195.871C127.209 199.266 122.642 201.974 118 204M79 188C75.7771 194.209 78.7881 197.015 85 199C83.3888 195.125 81.8167 191.119 79 188M69 200C72.4681 203.263 77.4272 203.954 82 205C78.1932 201.802 74.0431 198.875 69 200z"/>
</mask>
<path fill="white" mask="url(#mask)" d="M44 225C51.7254 224.744 54.2435 218.509 59.0031 213.287C60.6657 211.463 62.7733 208.696 65.439 208.5C68.6552 208.263 72.8747 210.345 76 211.127C81.8872 212.598 87.9402 213.496 94 213.91C121.814 215.815 151.381 205.032 170.829 184.91C206.483 148.024 210.527 87.0915 177.869 46.9105C169.773 36.9497 159.293 26.4749 147 22C150.067 14.6332 155.252 8.44221 158 1C147.996 -0.76387 147.749 15.8472 138.961 16.4954C133.41 16.9047 125.567 12.6451 120 11.4244C108.484 8.89931 96.6327 8.61769 85 10.439C27.464 19.4476 -8.73635 75.8116 1.46296 132C5.08573 151.958 15.5417 171.7 30.0895 185.83C34.8234 190.428 40.3238 195.04 46 198.417C48.5016 199.906 53.4602 201.545 54.3349 204.68C54.9188 206.773 53.0871 209.288 52.1381 211.004C49.5286 215.723 46.2089 220.094 44 225z"/>
</svg>
