<?xml version="1.0" encoding="UTF-8"?><svg id="a" xmlns="http://www.w3.org/2000/svg" xmlns:xlink="http://www.w3.org/1999/xlink" viewBox="0 0 200 226"><defs><style>.c{fill:none;}.d{fill:#ebebeb;}.e{clip-path:url(#b);}</style><clipPath id="b"><rect class="c" x="0" y="9.25" width="200" height="204.71" rx="99.72" ry="99.72"/></clipPath></defs><path class="d" d="M100.45,22.27c7.13,0,14.11,2.16,20.73,6.42,6.7,4.31,12.78,10.56,18.05,18.58,5.43,8.25,9.71,17.91,12.71,28.71,3.14,11.3,4.74,23.33,4.74,35.74s-1.59,24.44-4.74,35.74c-3,10.8-7.28,20.46-12.71,28.71-5.28,8.02-11.35,14.27-18.05,18.58-6.62,4.26-13.6,6.42-20.73,6.42s-14.11-2.16-20.73-6.42c-6.7-4.31-12.78-10.56-18.05-18.58-5.43-8.25-9.71-17.91-12.71-28.71-3.14-11.3-4.74-23.33-4.74-35.74s1.59-24.44,4.74-35.74c3-10.8,7.28-20.46,12.71-28.71,5.28-8.02,11.35-14.27,18.05-18.58,6.62-4.26,13.6-6.42,20.73-6.42m0-7.63c-35.27,0-63.86,43.47-63.86,97.08s28.59,97.08,63.86,97.08,63.86-43.47,63.86-97.08S135.72,14.64,100.45,14.64h0Z"/><path class="d" d="M100.11,19.58c1.93,0,4.36,1.74,6.83,4.9,3.34,4.27,6.54,10.85,9.25,19.05,2.89,8.72,5.16,18.93,6.76,30.34,1.67,11.94,2.52,24.63,2.52,37.74s-.85,25.8-2.52,37.74c-1.6,11.41-3.87,21.62-6.76,30.34-2.71,8.2-5.91,14.79-9.25,19.05-2.48,3.16-4.9,4.9-6.83,4.9s-4.36-1.74-6.83-4.9c-3.34-4.27-6.54-10.85-9.25-19.05-2.89-8.72-5.16-18.93-6.76-30.34-1.67-11.94-2.52-24.63-2.52-37.74s.85-25.8,2.52-37.74c1.6-11.41,3.87-21.62,6.76-30.34,2.71-8.2,5.91-14.79,9.25-19.05,2.48-3.16,4.9-4.9,6.83-4.9m0-7.63c-18.22,0-33,44.62-33,99.66s14.77,99.66,33,99.66,33-44.62,33-99.66S118.34,11.95,100.11,11.95h0Z"/><polygon class="d" points="197.08 108.24 1.12 108.24 1.12 115.2 197.08 115.2 197.08 108.24 197.08 108.24"/><path class="d" d="M57.91,125.08s-.42,.86-.45,.9c-.83,1.32,.64,1.5,1.46,1.46l40.67-3.58c.76-.04,1.26,.78,.9,1.46l-54.58,98.86c-.55,1.03,.81,2.01,1.57,1.13L160.25,91.22c.56-.65,.09-1.67-.76-1.64l-51.44,2.98c-.74,.03,.37-1.59,.35-1.52L156.9,1.85c-.22-1.57-1.45-1.91-2.47-1.12L57.91,125.08Z"/><polygon class="d" points="102.81 14.64 97.19 14.64 97.19 213.52 102.81 213.52 102.81 14.64 102.81 14.64"/><g class="e"><path class="d" d="M100.9,138.32c15.16,0,29.86,1.62,43.67,4.82,13.21,3.06,25.02,7.41,35.12,12.94,9.78,5.36,17.39,11.5,22.62,18.27,5.02,6.51,7.57,13.3,7.57,20.19s-2.55,13.69-7.57,20.19c-5.23,6.77-12.84,12.91-22.62,18.27-10.1,5.53-21.92,9.89-35.12,12.94-13.81,3.2-28.5,4.82-43.67,4.82s-29.86-1.62-43.67-4.82c-13.21-3.06-25.02-7.41-35.12-12.94-9.78-5.36-17.39-11.5-22.62-18.27-5.02-6.51-7.57-13.3-7.57-20.19s2.55-13.69,7.57-20.19c5.23-6.77,12.84-12.91,22.62-18.27,10.1-5.53,21.92-9.89,35.12-12.94,13.81-3.2,28.5-4.82,43.67-4.82m0-7.63c-64.4,0-116.61,28.59-116.61,63.86s52.21,63.86,116.61,63.86c64.4,0,116.61-28.59,116.61-63.86s-52.21-63.86-116.61-63.86h0Z"/><path class="d" d="M100.9-27.33c15.16,0,29.86,1.62,43.67,4.82,13.21,3.06,25.02,7.41,35.12,12.94,9.78,5.36,17.39,11.5,22.62,18.27,5.02,6.51,7.57,13.3,7.57,20.19s-2.55,13.69-7.57,20.19c-5.23,6.77-12.84,12.91-22.62,18.27-10.1,5.53-21.92,9.89-35.12,12.94-13.81,3.2-28.5,4.82-43.67,4.82s-29.86-1.62-43.67-4.82c-13.21-3.06-25.02-7.41-35.12-12.94C12.33,62,4.72,55.85-.51,49.09c-5.02-6.51-7.57-13.3-7.57-20.19S-5.53,15.21-.51,8.7C4.72,1.94,12.33-4.21,22.11-9.57c10.1-5.53,21.92-9.89,35.12-12.94,13.81-3.2,28.5-4.82,43.67-4.82m0-7.63C36.5-34.97-15.71-6.37-15.71,28.89s52.21,63.86,116.61,63.86,116.61-28.59,116.61-63.86-52.21-63.86-116.61-63.86h0Z"/><path class="d" d="M101.46,174.91c11.05,0,21.76,1.57,31.83,4.68,9.62,2.97,18.22,7.19,25.58,12.56,7.18,5.24,12.78,11.28,16.66,17.96,3.88,6.69,5.85,13.77,5.85,21.03s-1.97,14.33-5.85,21.03c-3.87,6.68-9.48,12.72-16.66,17.96-7.36,5.37-15.96,9.59-25.58,12.56-10.06,3.1-20.77,4.68-31.83,4.68s-21.76-1.57-31.83-4.68c-9.62-2.97-18.22-7.19-25.58-12.56-7.18-5.24-12.78-11.28-16.66-17.96-3.88-6.69-5.85-13.77-5.85-21.03s1.97-14.33,5.85-21.03c3.87-6.68,9.48-12.72,16.66-17.96,7.36-5.37,15.96-9.59,25.58-12.56,10.06-3.1,20.77-4.68,31.83-4.68m0-7.63c-48.35,0-87.54,28.59-87.54,63.86s39.19,63.86,87.54,63.86c48.35,0,87.54-28.59,87.54-63.86s-39.19-63.86-87.54-63.86h0Z"/><path class="d" d="M100.34-63.92c11.05,0,21.76,1.57,31.83,4.68,9.62,2.97,18.22,7.19,25.58,12.56,7.18,5.24,12.78,11.28,16.66,17.96,3.88,6.69,5.85,13.77,5.85,21.03s-1.97,14.33-5.85,21.03c-3.87,6.68-9.48,12.72-16.66,17.96-7.36,5.37-15.96,9.59-25.58,12.56-10.06,3.1-20.77,4.68-31.83,4.68s-21.76-1.57-31.83-4.68c-9.62-2.97-18.22-7.19-25.58-12.56-7.18-5.24-12.78-11.28-16.66-17.96C22.39,6.64,20.43-.43,20.43-7.69s1.97-14.33,5.85-21.03c3.87-6.68,9.48-12.72,16.66-17.96,7.36-5.37,15.96-9.59,25.58-12.56,10.06-3.1,20.77-4.68,31.83-4.68m0-7.63C51.99-71.55,12.79-42.96,12.79-7.69S51.99,56.17,100.34,56.17,187.88,27.58,187.88-7.69s-39.19-63.86-87.54-63.86h0Z"/></g><path class="d" d="M100.17,16.44c12.45,0,24.52,2.44,35.88,7.24,10.98,4.64,20.84,11.29,29.31,19.76,8.47,8.47,15.12,18.33,19.76,29.31,4.81,11.36,7.24,23.43,7.24,35.88v5.51c0,12.45-2.44,24.52-7.24,35.88-4.64,10.98-11.29,20.84-19.76,29.31-8.47,8.47-18.33,15.12-29.31,19.76-11.36,4.81-23.43,7.24-35.88,7.24h-.34c-12.45,0-24.52-2.44-35.88-7.24-10.98-4.64-20.84-11.29-29.31-19.76-8.47-8.47-15.12-18.33-19.76-29.31-4.81-11.36-7.24-23.43-7.24-35.88v-5.51c0-12.45,2.44-24.52,7.24-35.88,4.64-10.98,11.29-20.84,19.76-29.31,8.47-8.47,18.33-15.12,29.31-19.76,11.36-4.81,23.43-7.24,35.88-7.24h.34m0-7.63h-.34C44.69,8.8,0,53.5,0,108.63v5.51c0,55.13,44.69,99.83,99.83,99.83h.34c55.13,0,99.83-44.69,99.83-99.83v-5.51c0-55.13-44.69-99.83-99.83-99.83h0Z"/></svg>